<svg xmlns="http://www.w3.org/2000/svg" xmlns:xlink="http://www.w3.org/1999/xlink" width="127" height="23"><defs><path d="M.038 10.742c-.001 5.898 4.778 10.68 10.676 10.682s10.682-4.782 10.682-10.676c0-5.9-4.78-10.682-10.682-10.682C4.82.068.04 4.847.038 10.742" id="A"/></defs><g transform="matrix(1 0 0 -1 -.14591 22.152724)" fill="none" fill-rule="evenodd"><g fill-rule="nonzero"><path d="M10.468 5.785C9.237 4.674 7.64 4.2 5.1 4.2H4.06v13.274H5.1c2.53 0 4.065-.453 5.358-1.623 1.354-1.206 2.17-3.074 2.17-4.997s-.816-3.844-2.17-5.06l.01-.01zm-4.574 15.08H.146V.8h5.717c3.04 0 5.235.717 7.162 2.317 2.3 1.895 3.644 4.75 3.644 7.705 0 5.924-4.426 10.05-10.776 10.05l.001-.007zM18.47.8h3.915v20.073H18.47V.8zm13.5 12.37c-2.35.87-3.04 1.443-3.04 2.527 0 1.264 1.23 2.225 2.917 2.225 1.173 0 2.137-.482 3.158-1.626l2.05 2.683a8.78 8.78 0 0 1-5.899 2.225c-3.55 0-6.26-2.466-6.26-5.752 0-2.766 1.26-4.18 4.94-5.505 1.533-.54 2.313-.9 2.706-1.143.782-.5 1.174-1.234 1.174-2.077 0-1.626-1.293-2.832-3.04-2.832-1.867 0-3.372.934-4.273 2.677L23.86 4.13C25.664 1.482 27.83.308 30.8.308c4.07 0 6.923 2.705 6.923 6.6 0 3.2-1.32 4.633-5.774 6.262h.02zm6.99-2.346C38.97 4.914 43.603.34 49.565.34c1.685 0 3.13.33 4.9 1.17v4.6c-1.565-1.567-2.952-2.2-4.727-2.2-3.943 0-6.742 2.86-6.742 6.924 0 3.854 2.887 6.894 6.56 6.894 1.867 0 3.28-.666 4.9-2.26v4.607c-1.72.872-3.132 1.233-4.817 1.233-5.932 0-10.688-4.668-10.688-10.504l.008.02zM85.52 7.38l-5.353 13.483H75.9L84.407.276h2.107l8.672 20.588h-4.244L85.52 7.38zM96.957.8h11.104v3.4h-7.192v5.418h6.927v3.4h-6.927v4.455h7.192v3.4H96.957V.8zM115.7 11.623h-1.144v6.08h1.206c2.438 0 3.764-1.022 3.764-2.975 0-2.018-1.326-3.104-3.826-3.104v-.001zm7.855 3.315c0 3.758-2.6 5.926-7.104 5.926h-5.806V.8h3.9v8.064h.5L120.485.8h4.815l-6.32 8.457c2.95.6 4.573 2.617 4.573 5.7l.002-.02zm1.755 4.932h-.07v.46h.075c.208 0 .316-.075.316-.227s-.1-.234-.32-.234h-.001zm.742.24c0 .352-.242.544-.668.544h-.566V18.9h.42v.684l.494-.684h.514l-.58.728c.248.067.385.248.385.493l.001-.01z" fill="#737373"/><path d="M125.474 18.512c-.674 0-1.226.56-1.226 1.26s.544 1.263 1.226 1.263c.67 0 1.218-.574 1.218-1.263s-.547-1.26-1.218-1.26zm.006 2.8a1.53 1.53 0 0 1-1.537-1.538c0-.854.688-1.538 1.537-1.538.835 0 1.518.692 1.518 1.538s-.684 1.538-1.518 1.538z" fill="#201d1c"/></g><use fill="#737373" xlink:href="#A" transform="translate(55.714 .012)"/></g></svg>